<svg width="512" height="512" viewBox="0 0 512 512" fill="none" xmlns="http://www.w3.org/2000/svg">
  <rect width="512" height="512" rx="100" fill="url(#bg_grad)"/>

  <!-- Top arrow going right -->
  <path d="M140 100 Q 256 30 372 100" stroke="#10B981" stroke-width="24" stroke-linecap="round" fill="none"/>
  <path d="M372 100 L 332 60" stroke="#10B981" stroke-width="24" stroke-linecap="round" stroke-linejoin="round" fill="none"/>
  <path d="M372 100 L 332 140" stroke="#10B981" stroke-width="24" stroke-linecap="round" stroke-linejoin="round" fill="none"/>

  <!-- Bottom arrow going left -->
  <path d="M372 412 Q 256 482 140 412" stroke="#F59E0B" stroke-width="24" stroke-linecap="round" fill="none"/>
  <path d="M140 412 L 180 372" stroke="#F59E0B" stroke-width="24" stroke-linecap="round" stroke-linejoin="round" fill="none"/>
  <path d="M140 412 L 180 452" stroke="#F59E0B" stroke-width="24" stroke-linecap="round" stroke-linejoin="round" fill="none"/>

  <!-- Left Open Book Side -->
  <path d="M256 160 C 210 138 150 138 100 160 V 380 C 150 358 210 358 256 380 Z" fill="#F8FAFC" />
  
  <!-- Right Open Book Side -->
  <path d="M256 160 C 302 138 362 138 412 160 V 380 C 362 358 302 358 256 380 Z" fill="#E2E8F0" />
  
  <!-- Spine -->
  <path d="M256 160 V 380" stroke="#94A3B8" stroke-width="12" stroke-linecap="round" />

  <!-- Left Page Lines -->
  <path d="M130 220 H 210" stroke="#CBD5E1" stroke-width="12" stroke-linecap="round"/>
  <path d="M130 270 H 210" stroke="#CBD5E1" stroke-width="12" stroke-linecap="round"/>
  <path d="M130 320 H 170" stroke="#CBD5E1" stroke-width="12" stroke-linecap="round"/>

  <!-- Right Page Lines -->
  <path d="M302 220 H 382" stroke="#CBD5E1" stroke-width="12" stroke-linecap="round"/>
  <path d="M302 270 H 382" stroke="#CBD5E1" stroke-width="12" stroke-linecap="round"/>
  <path d="M302 320 H 342" stroke="#CBD5E1" stroke-width="12" stroke-linecap="round"/>

  <defs>
    <linearGradient id="bg_grad" x1="0" y1="0" x2="512" y2="512" gradientUnits="userSpaceOnUse">
      <stop stop-color="#3B82F6"/>
      <stop offset="1" stop-color="#8B5CF6"/>
    </linearGradient>
  </defs>
</svg>
